<svg width="10013" height="7226" viewBox="0 0 10013 7226" fill="none" xmlns="http://www.w3.org/2000/svg">
<g filter="url(#filter0_i_90_2)">
<path d="M784.359 4460.83V748.97H3105.09C3740.42 748.97 4490.47 1647 3105.09 1968.79H1622.65L3978.67 4460.83H784.359Z" fill="#0187DE"/>
<path d="M3740.42 2724.63C6164.13 1814.81 4700.6 109.458 3788.92 0.607122H6149.39V1826.6C6149.39 1802.65 7367.12 599.294 7975.98 0.607122H9273.11L7120.04 2185.81L9458.42 4460.82H8099.51L6149.39 2477.67V4460.82H5364.05L3740.42 2724.63Z" fill="#0187DE"/>
<path d="M1972.57 6103.9C1972.57 6111.89 1967.18 6115.89 1956.41 6115.89L1821.72 6120.69C1815.74 6120.29 1811.35 6116.49 1808.56 6109.3L1658.31 5728.02L1616.41 6101.5C1615.21 6111.09 1610.22 6116.09 1601.44 6116.49L1476.34 6120.69C1467.56 6119.89 1463.17 6116.09 1463.17 6109.3L1566.72 5207.07C1567.52 5199.87 1569.32 5195.08 1572.11 5192.68C1574.9 5189.88 1596.05 5186.88 1635.56 5183.69C1675.07 5180.09 1727.75 5178.29 1793.59 5178.29C1859.44 5178.29 1910.12 5195.88 1945.63 5231.05C1981.55 5265.82 1999.51 5310.78 1999.51 5365.93C1999.51 5421.08 1992.92 5469.84 1979.75 5512.21C1966.58 5554.17 1944.84 5591.94 1914.51 5625.51C1884.18 5659.08 1846.27 5684.06 1800.77 5700.45L1970.77 6096.71C1971.97 6099.1 1972.57 6101.5 1972.57 6103.9ZM1704.4 5317.97L1670.88 5615.92C1744.71 5611.52 1795.59 5577.95 1823.52 5515.2C1838.68 5480.83 1846.27 5446.06 1846.27 5410.89C1846.27 5375.32 1838.88 5350.54 1824.12 5336.56C1809.75 5322.17 1788.8 5314.97 1761.27 5314.97C1733.73 5314.97 1714.78 5315.97 1704.4 5317.97Z" fill="#0187DE"/>
<path d="M2568.77 6105.7C2568.77 6112.49 2563.58 6115.89 2553.21 6115.89L2424.51 6120.69C2417.73 6120.29 2413.34 6116.49 2411.34 6109.3L2282.64 5660.28L2232.96 6101.5C2231.76 6111.09 2226.37 6116.09 2216.8 6116.49L2093.49 6120.69C2085.11 6120.69 2080.92 6116.89 2080.92 6109.3L2183.28 5202.27C2184.07 5197.48 2185.27 5194.08 2186.87 5192.08C2188.86 5190.08 2192.65 5188.88 2198.24 5188.48L2318.56 5184.29C2328.93 5184.69 2334.12 5189.48 2334.12 5198.67L2288.63 5602.13L2461.62 5202.87C2465.61 5193.68 2472 5188.88 2480.78 5188.48L2605.88 5184.29C2616.26 5185.09 2621.45 5189.28 2621.45 5196.88C2621.45 5201.67 2620.05 5206.87 2617.26 5212.46L2423.91 5619.51L2568.17 6099.1C2568.57 6100.3 2568.77 6102.5 2568.77 6105.7Z" fill="#0187DE"/>
<path d="M3299.66 5708.24L3113.49 5715.43L3085.36 5961.22L3314.62 5953.43C3325 5953.83 3330.18 5959.02 3330.18 5969.02L3314.62 6093.11C3313.82 6101.5 3308.64 6106.7 3299.06 6108.7L2930.92 6120.69C2922.14 6120.69 2917.75 6116.89 2917.75 6109.3L3021.31 5202.27C3022.91 5193.88 3028.09 5189.28 3036.87 5188.48L3364.9 5177.09C3374.88 5178.29 3379.87 5183.69 3379.87 5193.28L3364.9 5317.37C3363.71 5327.36 3358.52 5332.76 3349.34 5333.56L3156.59 5338.95L3130.85 5561.96L3315.22 5555.37C3325.6 5555.77 3330.78 5560.96 3330.78 5570.96L3315.22 5693.25C3313.62 5702.44 3308.44 5707.44 3299.66 5708.24Z" fill="#0187DE"/>
<path d="M4031.14 5196.28L3928.18 6099.1C3926.58 6108.3 3921.4 6113.29 3912.62 6114.09L3794.1 6120.69C3787.31 6120.69 3783.32 6116.89 3782.12 6109.3L3656.42 5469.04L3612.12 6101.5C3611.72 6111.09 3606.54 6116.09 3596.56 6116.49L3473.25 6120.69C3464.47 6120.69 3460.08 6116.89 3460.08 6109.3L3563.64 5202.27C3565.23 5193.88 3570.42 5189.28 3579.2 5188.48L3700.71 5181.89C3706.3 5181.89 3709.89 5183.09 3711.49 5185.49C3713.49 5187.48 3715.08 5191.08 3716.28 5196.28L3837.79 5801.16L3879.69 5202.27C3880.09 5193.48 3885.48 5188.88 3895.86 5188.48L4014.98 5181.89C4025.75 5181.89 4031.14 5186.68 4031.14 5196.28Z" fill="#0187DE"/>
<path d="M4166.42 5190.88L4554.31 5177.09C4563.49 5177.49 4568.08 5182.49 4568.08 5192.08L4552.52 5314.97C4551.72 5320.97 4550.32 5325.17 4548.33 5327.56C4546.73 5329.96 4543.14 5331.36 4537.55 5331.76L4421.42 5335.96L4334.03 6101.5C4332.83 6111.09 4327.64 6116.09 4318.47 6116.49L4193.96 6120.69C4185.98 6120.69 4181.99 6116.89 4181.99 6109.3L4269.98 5340.75L4150.86 5344.35C4140.88 5343.95 4135.89 5339.35 4135.89 5330.56L4150.86 5205.87C4151.26 5196.28 4156.45 5191.28 4166.42 5190.88Z" fill="#0187DE"/>
<path d="M4966.14 5708.24L4779.98 5715.43L4751.85 5961.22L4981.11 5953.43C4991.49 5953.83 4996.67 5959.02 4996.67 5969.02L4981.11 6093.11C4980.31 6101.5 4975.12 6106.7 4965.55 6108.7L4597.41 6120.69C4588.63 6120.69 4584.24 6116.89 4584.24 6109.3L4687.8 5202.27C4689.39 5193.88 4694.58 5189.28 4703.36 5188.48L5031.39 5177.09C5041.37 5178.29 5046.36 5183.69 5046.36 5193.28L5031.39 5317.37C5030.19 5327.36 5025.01 5332.76 5015.83 5333.56L4823.08 5338.95L4797.34 5561.96L4981.71 5555.37C4992.08 5555.77 4997.27 5560.96 4997.27 5570.96L4981.71 5693.25C4980.11 5702.44 4974.92 5707.44 4966.14 5708.24Z" fill="#0187DE"/>
<path d="M5635.97 6103.9C5635.97 6111.89 5630.59 6115.89 5619.81 6115.89L5485.13 6120.69C5479.14 6120.29 5474.75 6116.49 5471.96 6109.3L5321.71 5728.02L5279.81 6101.5C5278.61 6111.09 5273.62 6116.09 5264.84 6116.49L5139.74 6120.69C5130.96 6119.89 5126.57 6116.09 5126.57 6109.3L5230.13 5207.07C5230.92 5199.87 5232.72 5195.08 5235.51 5192.68C5238.31 5189.88 5259.46 5186.88 5298.96 5183.69C5338.47 5180.09 5391.15 5178.29 5456.99 5178.29C5522.84 5178.29 5573.52 5195.88 5609.04 5231.05C5644.95 5265.82 5662.91 5310.78 5662.91 5365.93C5662.91 5421.08 5656.33 5469.84 5643.16 5512.21C5629.99 5554.17 5608.24 5591.94 5577.91 5625.51C5547.58 5659.08 5509.67 5684.06 5464.18 5700.45L5634.18 6096.71C5635.37 6099.1 5635.97 6101.5 5635.97 6103.9ZM5367.8 5317.97L5334.28 5615.92C5408.11 5611.52 5458.99 5577.95 5486.92 5515.2C5502.09 5480.83 5509.67 5446.06 5509.67 5410.89C5509.67 5375.32 5502.29 5350.54 5487.52 5336.56C5473.15 5322.17 5452.2 5314.97 5424.67 5314.97C5397.13 5314.97 5378.18 5315.97 5367.8 5317.97Z" fill="#0187DE"/>
<path d="M6257.91 5558.97C6223.59 5692.05 6116.25 5758.8 5935.87 5759.19L5898.16 6099.1C5896.96 6108.7 5891.97 6113.69 5883.19 6114.09L5757.49 6120.69C5748.71 6119.89 5744.32 6116.09 5744.32 6109.3L5847.88 5202.27C5849.47 5193.88 5854.66 5189.28 5863.44 5188.48C5938.06 5181.69 6009.3 5178.29 6077.14 5178.29C6212.02 5178.29 6279.46 5243.04 6279.46 5372.53C6279.46 5443.27 6272.28 5505.41 6257.91 5558.97ZM5984.95 5317.97L5950.83 5620.71C6019.87 5620.71 6066.36 5606.33 6090.31 5577.55C6114.25 5548.77 6126.22 5492.82 6126.22 5409.69C6126.22 5377.72 6117.64 5354.14 6100.48 5338.95C6083.32 5323.77 6061.37 5316.17 6034.64 5316.17C6007.9 5316.17 5991.34 5316.77 5984.95 5317.97Z" fill="#0187DE"/>
<path d="M6866.68 6103.9C6866.68 6111.89 6861.3 6115.89 6850.52 6115.89L6715.84 6120.69C6709.85 6120.29 6705.46 6116.49 6702.67 6109.3L6552.42 5728.02L6510.52 6101.5C6509.32 6111.09 6504.34 6116.09 6495.56 6116.49L6370.45 6120.69C6361.67 6119.89 6357.28 6116.09 6357.28 6109.3L6460.84 5207.07C6461.64 5199.87 6463.43 5195.08 6466.22 5192.68C6469.02 5189.88 6490.17 5186.88 6529.68 5183.69C6569.18 5180.09 6621.86 5178.29 6687.7 5178.29C6753.55 5178.29 6804.23 5195.88 6839.75 5231.05C6875.66 5265.82 6893.62 5310.78 6893.62 5365.93C6893.62 5421.08 6887.04 5469.84 6873.87 5512.21C6860.7 5554.17 6838.95 5591.94 6808.62 5625.51C6778.29 5659.08 6740.38 5684.06 6694.89 5700.45L6864.89 6096.71C6866.09 6099.1 6866.68 6101.5 6866.68 6103.9ZM6598.51 5317.97L6564.99 5615.92C6638.82 5611.52 6689.7 5577.95 6717.63 5515.2C6732.8 5480.83 6740.38 5446.06 6740.38 5410.89C6740.38 5375.32 6733 5350.54 6718.23 5336.56C6703.87 5322.17 6682.92 5314.97 6655.38 5314.97C6627.85 5314.97 6608.89 5315.97 6598.51 5317.97Z" fill="#0187DE"/>
<path d="M7229.43 5198.67L7127.07 6101.5C7125.88 6111.09 7120.69 6116.09 7111.51 6116.49L6988.2 6120.69C6979.42 6120.69 6975.03 6116.89 6975.03 6109.3L7078.59 5202.27C7080.18 5193.88 7085.37 5189.28 7094.15 5188.48L7213.87 5184.29C7224.25 5184.69 7229.43 5189.48 7229.43 5198.67Z" fill="#0187DE"/>
<path d="M7295.88 6127.28C7285.9 6127.28 7280.91 6122.48 7280.91 6112.89L7295.88 5987.6C7297.47 5978.81 7302.66 5974.01 7311.44 5973.21C7373.69 5966.82 7414.8 5957.03 7434.75 5943.84C7454.7 5930.25 7464.68 5903.47 7464.68 5863.51C7464.68 5823.54 7454.5 5771.58 7434.15 5707.64C7413.8 5643.29 7400.63 5600.53 7394.65 5579.35C7375.49 5511.41 7365.91 5455.85 7365.91 5412.69C7365.91 5369.13 7372.9 5331.96 7386.86 5301.19C7400.83 5270.41 7420.78 5245.83 7446.72 5227.45C7497.01 5192.28 7564.65 5174.69 7649.65 5174.69C7660.42 5174.69 7665.81 5179.69 7665.81 5189.68L7649.65 5313.78C7648.05 5323.77 7643.06 5329.16 7634.68 5329.96C7557.26 5335.16 7518.56 5358.14 7518.56 5398.9C7518.56 5436.47 7534.92 5510.41 7567.64 5620.71C7600.76 5730.62 7617.32 5809.35 7617.32 5856.91C7617.32 6037.16 7510.17 6127.28 7295.88 6127.28Z" fill="#0187DE"/>
<path d="M8118.35 5708.24L7932.18 5715.43L7904.05 5961.22L8133.31 5953.43C8143.69 5953.83 8148.87 5959.02 8148.87 5969.02L8133.31 6093.11C8132.51 6101.5 8127.33 6106.7 8117.75 6108.7L7749.61 6120.69C7740.83 6120.69 7736.44 6116.89 7736.44 6109.3L7840 5202.27C7841.6 5193.88 7846.78 5189.28 7855.56 5188.48L8183.59 5177.09C8193.57 5178.29 8198.56 5183.69 8198.56 5193.28L8183.59 5317.37C8182.4 5327.36 8177.21 5332.76 8168.03 5333.56L7975.28 5338.95L7949.54 5561.96L8133.91 5555.37C8144.29 5555.77 8149.47 5560.96 8149.47 5570.96L8133.91 5693.25C8132.31 5702.44 8127.13 5707.44 8118.35 5708.24Z" fill="#0187DE"/>
<path d="M8265.6 6127.28C8255.62 6127.28 8250.64 6122.48 8250.64 6112.89L8265.6 5987.6C8267.2 5978.81 8272.39 5974.01 8281.16 5973.21C8343.42 5966.82 8384.52 5957.03 8404.48 5943.84C8424.43 5930.25 8434.4 5903.47 8434.4 5863.51C8434.4 5823.54 8424.23 5771.58 8403.88 5707.64C8383.52 5643.29 8370.36 5600.53 8364.37 5579.35C8345.21 5511.41 8335.64 5455.85 8335.64 5412.69C8335.64 5369.13 8342.62 5331.96 8356.59 5301.19C8370.55 5270.41 8390.51 5245.83 8416.45 5227.45C8466.73 5192.28 8534.37 5174.69 8619.37 5174.69C8630.15 5174.69 8635.53 5179.69 8635.53 5189.68L8619.37 5313.78C8617.78 5323.77 8612.79 5329.16 8604.41 5329.96C8526.99 5335.16 8488.28 5358.14 8488.28 5398.9C8488.28 5436.47 8504.64 5510.41 8537.36 5620.71C8570.49 5730.62 8587.05 5809.35 8587.05 5856.91C8587.05 6037.16 8479.9 6127.28 8265.6 6127.28Z" fill="#0187DE"/>
<path d="M254.702 7072.83C254.702 7076.83 252.009 7078.83 246.621 7078.83L179.279 7081.22C176.286 7081.02 174.091 7079.13 172.695 7075.53L97.571 6884.89L76.6202 7071.63C76.0216 7076.43 73.5274 7078.93 69.1377 7079.13L6.58455 7081.22C2.19485 7080.82 0 7078.93 0 7075.53L51.7785 6624.41C52.1775 6620.82 53.0754 6618.42 54.4722 6617.22C55.8689 6615.82 66.4441 6614.32 86.1977 6612.73C105.951 6610.93 132.29 6610.03 165.212 6610.03C198.135 6610.03 223.476 6618.82 241.234 6636.4C259.192 6653.79 268.171 6676.27 268.171 6703.85C268.171 6731.42 264.878 6755.8 258.294 6776.98C251.709 6797.97 240.835 6816.85 225.67 6833.64C210.506 6850.42 191.55 6862.91 168.804 6871.1L253.804 7069.23C254.403 7070.43 254.702 7071.63 254.702 7072.83ZM120.617 6679.87L103.856 6828.84C140.77 6826.64 166.21 6809.86 180.177 6778.48C187.759 6761.3 191.55 6743.91 191.55 6726.33C191.55 6708.54 187.859 6696.15 180.476 6689.16C173.293 6681.96 162.818 6678.37 149.05 6678.37C135.283 6678.37 125.805 6678.87 120.617 6679.87Z" fill="black"/>
<path d="M327.132 7023.97C322.543 7011.98 319.351 7000.19 317.555 6988.6C315.958 6976.81 315.16 6960.73 315.16 6940.34C315.16 6919.96 317.355 6894.78 321.745 6864.81C336.311 6764.89 381.604 6714.94 457.626 6714.94C486.957 6714.94 509.404 6725.03 524.968 6745.21C540.531 6765.39 548.313 6791.57 548.313 6823.74C548.313 6855.92 546.318 6887.19 542.327 6917.56C541.729 6922.96 538.636 6925.76 533.049 6925.96L385.196 6931.05C384.996 6934.05 384.897 6938.05 384.897 6943.04C384.897 6965.62 388.788 6983.51 396.569 6996.7C404.551 7009.89 416.522 7016.48 432.485 7016.48C448.448 7016.48 463.213 7014.18 476.781 7009.59C490.549 7004.79 498.63 7002.39 501.024 7002.39C503.419 7002.39 505.514 7003.19 507.309 7004.79C509.105 7006.39 510.003 7008.59 510.003 7011.38L504.017 7064.14C503.818 7067.14 503.219 7069.13 502.221 7070.13C501.423 7070.93 499.727 7071.83 497.133 7072.83C472.99 7079.83 449.744 7083.32 427.397 7083.32C405.049 7083.32 387.69 7080.62 375.319 7075.23C362.948 7069.83 352.972 7062.94 345.389 7054.55C338.007 7045.95 331.921 7035.76 327.132 7023.97ZM392.379 6855.82L389.685 6875L467.802 6871.1C471.194 6870.9 473.389 6870.3 474.387 6869.31C477.38 6866.31 478.876 6858.11 478.876 6844.73C478.876 6831.14 478.377 6821.65 477.38 6816.25C476.582 6810.66 475.085 6804.96 472.89 6799.17C468.301 6786.38 460.419 6779.98 449.246 6779.98C438.271 6779.98 429.592 6781.88 423.207 6785.68C409.04 6794.47 398.764 6817.85 392.379 6855.82Z" fill="black"/>
<path d="M735.374 6580.95L680.303 7070.73C679.904 7073.53 679.206 7075.53 678.208 7076.73C677.211 7077.93 675.315 7078.63 672.522 7078.83L612.363 7081.22C607.973 7080.82 605.778 7078.93 605.778 7075.53L661.148 6583.05C661.547 6580.25 662.246 6578.25 663.243 6577.06C664.241 6575.86 666.137 6575.16 668.93 6574.96L727.592 6572.86C732.78 6573.46 735.374 6576.16 735.374 6580.95Z" fill="black"/>
<path d="M849.407 6684.96C837.036 6684.96 827.159 6681.07 819.776 6673.27C812.393 6665.48 808.702 6655.49 808.702 6643.3C808.702 6630.91 813.591 6619.92 823.368 6610.33C833.344 6600.54 844.518 6595.64 856.889 6595.64C869.26 6595.64 879.236 6599.54 886.819 6607.33C894.6 6615.12 898.491 6625.21 898.491 6637.6C898.491 6649.79 893.403 6660.78 883.227 6670.58C873.051 6680.17 861.778 6684.96 849.407 6684.96ZM882.629 6725.43L843.72 7071.03C843.321 7073.83 842.622 7075.83 841.625 7077.03C840.627 7078.23 838.732 7078.93 835.938 7079.13L775.779 7081.22C771.39 7080.82 769.195 7078.93 769.195 7075.53L808.702 6726.93C809.5 6722.53 811.994 6720.13 816.185 6719.73L874.548 6717.64C879.935 6718.03 882.629 6720.63 882.629 6725.43Z" fill="black"/>
<path d="M1198.09 6725.43L1159.18 7071.03C1158.58 7076.23 1155.99 7078.93 1151.4 7079.13L1090.94 7081.22C1086.75 7080.82 1084.65 7078.93 1084.65 7075.53L1090.34 7034.76C1081.16 7050.35 1071.09 7062.34 1060.11 7070.73C1049.34 7079.13 1037.17 7083.32 1023.6 7083.32C1010.03 7083.32 998.457 7081.02 988.879 7076.43C979.302 7071.63 971.42 7065.44 965.235 7057.84C959.249 7050.05 954.36 7040.76 950.569 7029.97C943.586 7010.78 940.094 6984.61 940.094 6951.44C940.094 6918.06 942.289 6889.79 946.678 6866.61C951.267 6843.43 955.258 6825.84 958.65 6813.85C962.042 6801.66 966.532 6789.17 972.119 6776.38C977.905 6763.6 984.39 6752.91 991.573 6744.31C1007.93 6724.73 1028.59 6714.94 1053.53 6714.94C1072.08 6714.94 1086.25 6719.43 1096.03 6728.43C1105.8 6737.22 1113.99 6750.31 1120.57 6767.69L1124.16 6726.93C1124.56 6722.53 1127.05 6720.13 1131.64 6719.73L1190.31 6717.64C1195.49 6718.03 1198.09 6720.63 1198.09 6725.43ZM1015.52 6942.74C1015.52 6990.5 1028.29 7014.38 1053.83 7014.38C1065 7014.38 1074.08 7009.29 1081.06 6999.09C1088.05 6988.7 1094.03 6968.02 1099.02 6937.05C1104.21 6906.07 1106.8 6883.49 1106.8 6869.31C1106.8 6855.12 1106.7 6846.13 1106.5 6842.33C1106.3 6838.53 1105.9 6833.54 1105.31 6827.34C1104.71 6820.95 1103.61 6815.65 1102.01 6811.45C1100.42 6807.06 1098.32 6802.66 1095.73 6798.27C1090.54 6789.67 1082.16 6785.38 1070.59 6785.38C1059.01 6785.38 1049.84 6790.57 1043.05 6800.96C1036.27 6811.15 1030.98 6824.84 1027.19 6842.03C1019.41 6878.8 1015.52 6912.37 1015.52 6942.74Z" fill="black"/>
<path d="M1377.67 6580.95L1352.53 6772.49C1362.5 6753.9 1373.18 6739.72 1384.55 6729.92C1396.12 6719.93 1408.99 6714.94 1423.16 6714.94C1437.53 6714.94 1449.5 6717.34 1459.08 6722.13C1468.65 6726.73 1476.43 6732.92 1482.42 6740.72C1488.61 6748.31 1493.69 6757.5 1497.69 6768.29C1504.47 6787.48 1507.86 6813.75 1507.86 6847.12C1507.86 6880.3 1505.57 6908.47 1500.98 6931.65C1496.59 6954.83 1492.7 6972.52 1489.3 6984.71C1485.91 6996.7 1481.32 7009.09 1475.54 7021.87C1469.95 7034.66 1463.57 7045.36 1456.38 7053.95C1440.02 7073.53 1420.77 7083.32 1398.62 7083.32C1376.67 7083.32 1360.81 7078.73 1351.03 7069.53C1341.25 7060.14 1332.87 7046.05 1325.89 7027.27L1322.6 7071.03C1322.2 7076.23 1319.7 7078.93 1315.11 7079.13L1254.66 7081.22C1250.27 7080.82 1248.07 7078.93 1248.07 7075.53L1303.74 6583.05C1304.14 6580.25 1304.74 6578.25 1305.54 6577.06C1306.53 6575.86 1308.43 6575.16 1311.22 6574.96L1369.88 6572.86C1375.07 6573.46 1377.67 6576.16 1377.67 6580.95ZM1432.44 6855.52C1432.44 6807.76 1419.67 6783.88 1394.13 6783.88C1382.95 6783.88 1373.88 6789.07 1366.89 6799.46C1359.91 6809.66 1353.82 6830.24 1348.63 6861.21C1343.65 6892.19 1341.15 6914.77 1341.15 6928.95C1341.15 6943.14 1341.25 6952.13 1341.45 6955.93C1341.65 6959.73 1342.05 6964.82 1342.65 6971.22C1343.25 6977.41 1344.34 6982.71 1345.94 6987.1C1347.54 6991.3 1349.63 6995.5 1352.23 6999.69C1357.41 7008.49 1365.79 7012.88 1377.37 7012.88C1388.94 7012.88 1398.12 7007.79 1404.9 6997.6C1411.69 6987.2 1416.87 6973.42 1420.47 6956.23C1428.45 6919.46 1432.44 6885.89 1432.44 6855.52Z" fill="black"/>
<path d="M1694.92 6580.95L1639.85 7070.73C1639.45 7073.53 1638.75 7075.53 1637.76 7076.73C1636.76 7077.93 1634.86 7078.63 1632.07 7078.83L1571.91 7081.22C1567.52 7080.82 1565.33 7078.93 1565.33 7075.53L1620.7 6583.05C1621.1 6580.25 1621.79 6578.25 1622.79 6577.06C1623.79 6575.86 1625.68 6575.16 1628.48 6574.96L1687.14 6572.86C1692.33 6573.46 1694.92 6576.16 1694.92 6580.95Z" fill="black"/>
<path d="M1748.2 7023.97C1743.61 7011.98 1740.42 7000.19 1738.62 6988.6C1737.02 6976.81 1736.23 6960.73 1736.23 6940.34C1736.23 6919.96 1738.42 6894.78 1742.81 6864.81C1757.38 6764.89 1802.67 6714.94 1878.69 6714.94C1908.02 6714.94 1930.47 6725.03 1946.03 6745.21C1961.6 6765.39 1969.38 6791.57 1969.38 6823.74C1969.38 6855.92 1967.38 6887.19 1963.39 6917.56C1962.79 6922.96 1959.7 6925.76 1954.11 6925.96L1806.26 6931.05C1806.06 6934.05 1805.96 6938.05 1805.96 6943.04C1805.96 6965.62 1809.85 6983.51 1817.63 6996.7C1825.62 7009.89 1837.59 7016.48 1853.55 7016.48C1869.51 7016.48 1884.28 7014.18 1897.85 7009.59C1911.61 7004.79 1919.69 7002.39 1922.09 7002.39C1924.48 7002.39 1926.58 7003.19 1928.37 7004.79C1930.17 7006.39 1931.07 7008.59 1931.07 7011.38L1925.08 7064.14C1924.88 7067.14 1924.28 7069.13 1923.29 7070.13C1922.49 7070.93 1920.79 7071.83 1918.2 7072.83C1894.05 7079.83 1870.81 7083.32 1848.46 7083.32C1826.11 7083.32 1808.76 7080.62 1796.38 7075.23C1784.01 7069.83 1774.04 7062.94 1766.45 7054.55C1759.07 7045.95 1752.99 7035.76 1748.2 7023.97ZM1813.44 6855.82L1810.75 6875L1888.87 6871.1C1892.26 6870.9 1894.45 6870.3 1895.45 6869.31C1898.44 6866.31 1899.94 6858.11 1899.94 6844.73C1899.94 6831.14 1899.44 6821.65 1898.44 6816.25C1897.65 6810.66 1896.15 6804.96 1893.96 6799.17C1889.37 6786.38 1881.48 6779.98 1870.31 6779.98C1859.34 6779.98 1850.66 6781.88 1844.27 6785.68C1830.1 6794.47 1819.83 6817.85 1813.44 6855.82Z" fill="black"/>
<path d="M2136.39 7218.51L2192.06 6727.23C2192.65 6722.43 2195.15 6719.93 2199.54 6719.73L2259.7 6717.64C2264.09 6718.03 2266.28 6720.13 2266.28 6723.93L2260.3 6763.8C2269.47 6748.01 2279.45 6735.92 2290.23 6727.53C2301.2 6719.13 2313.47 6714.94 2327.04 6714.94C2340.81 6714.94 2352.48 6717.34 2362.06 6722.13C2371.63 6726.73 2379.42 6732.92 2385.4 6740.72C2391.59 6748.31 2396.58 6757.5 2400.37 6768.29C2407.35 6787.48 2410.84 6813.75 2410.84 6847.12C2410.84 6880.3 2408.55 6908.47 2403.96 6931.65C2399.57 6954.83 2395.68 6972.52 2392.29 6984.71C2388.89 6996.7 2384.3 7009.09 2378.52 7021.87C2372.93 7034.66 2366.55 7045.36 2359.36 7053.95C2343 7073.53 2323.75 7083.32 2301.6 7083.32C2279.45 7083.32 2263.49 7078.63 2253.71 7069.23C2243.93 7059.84 2235.55 7045.65 2228.57 7026.67L2210.91 7216.41C2210.71 7221.2 2208.12 7223.7 2203.13 7223.9L2144.47 7226C2139.08 7225.8 2136.39 7223.3 2136.39 7218.51ZM2335.72 6855.52C2335.72 6807.96 2322.95 6784.18 2297.41 6784.18C2285.84 6784.18 2276.56 6789.27 2269.57 6799.46C2262.79 6809.66 2256.8 6830.54 2251.62 6862.11C2246.63 6893.68 2244.13 6916.37 2244.13 6930.15C2244.13 6943.74 2244.23 6952.43 2244.43 6956.23C2244.63 6959.83 2245.03 6964.82 2245.63 6971.22C2246.23 6977.61 2247.33 6982.91 2248.92 6987.1C2250.52 6991.3 2252.61 6995.5 2255.21 6999.69C2260.4 7008.49 2268.78 7012.88 2280.35 7012.88C2291.92 7012.88 2301 7007.79 2307.58 6997.6C2314.37 6987.4 2319.66 6973.52 2323.45 6955.93C2331.63 6918.36 2335.72 6884.89 2335.72 6855.52Z" fill="black"/>
<path d="M2670.03 6794.07L2638.01 6790.77C2612.07 6790.77 2590.32 6795.97 2572.76 6806.36L2543.13 7070.73C2542.33 7075.73 2539.84 7078.43 2535.65 7078.83L2475.19 7081.22C2470.8 7080.82 2468.61 7078.93 2468.61 7075.53L2508.11 6726.93C2508.91 6722.53 2511.41 6720.13 2515.6 6719.73L2573.96 6717.64C2579.35 6717.83 2582.04 6720.43 2582.04 6725.43L2578.45 6756.3C2591.22 6743.31 2603.59 6733.22 2615.56 6726.03C2627.53 6718.63 2639.51 6714.94 2651.48 6714.94C2663.65 6714.94 2672.93 6715.44 2679.31 6716.44C2683.5 6717.24 2685.6 6720.03 2685.6 6724.83C2685.6 6738.62 2683.3 6759.1 2678.71 6786.28C2677.72 6791.47 2674.82 6794.07 2670.03 6794.07Z" fill="black"/>
<path d="M2816.09 7083.32C2780.77 7083.32 2754.83 7072.73 2738.27 7051.55C2721.91 7030.17 2713.73 6999.09 2713.73 6958.33C2713.73 6939.35 2715.83 6914.57 2720.02 6883.99C2724.21 6853.42 2728.1 6831.24 2731.69 6817.45C2735.28 6803.46 2740.37 6789.87 2746.95 6776.68C2753.54 6763.3 2761.32 6752.3 2770.3 6743.71C2790.05 6724.53 2816.79 6714.94 2850.51 6714.94C2898.4 6714.94 2929.42 6732.52 2943.59 6767.69C2951.17 6786.48 2954.96 6809.26 2954.96 6836.03C2954.96 6862.61 2952.87 6890.19 2948.68 6918.76C2944.69 6947.34 2940.9 6968.52 2937.31 6982.31C2933.71 6995.9 2928.63 7009.29 2922.04 7022.47C2915.66 7035.46 2907.98 7046.25 2899 7054.85C2879.24 7073.83 2851.61 7083.32 2816.09 7083.32ZM2869.07 6952.03C2871.26 6941.44 2874.05 6921.66 2877.45 6892.69C2881.04 6863.51 2882.83 6841.93 2882.83 6827.94C2882.83 6793.97 2870.56 6776.98 2846.02 6776.98C2834.45 6776.98 2824.87 6782.48 2817.29 6793.47C2809.91 6804.46 2803.92 6822.74 2799.33 6848.32C2790.15 6900.28 2785.56 6942.44 2785.56 6974.81C2785.56 7007.19 2797.73 7023.37 2822.08 7023.37C2833.65 7023.37 2843.23 7017.88 2850.81 7006.89C2858.59 6995.7 2864.68 6977.41 2869.07 6952.03Z" fill="black"/>
<path d="M3060.02 6718.83C3064.61 6674.87 3067.6 6652.19 3069 6650.79C3070.39 6649.19 3072.49 6648.29 3075.28 6648.09L3132.45 6646C3137.84 6646.4 3140.53 6648.89 3140.53 6653.49C3136.74 6675.67 3133.55 6696.95 3130.95 6717.33L3200.69 6714.94C3205.48 6715.14 3207.87 6717.73 3207.87 6722.73L3199.49 6770.39C3198.69 6775.19 3196.2 6777.68 3192.01 6777.88L3123.47 6780.58C3109.9 6902.88 3103.12 6970.32 3103.12 6982.91C3103.12 7006.29 3113.09 7017.98 3133.05 7017.98C3143.22 7017.98 3153.1 7016.38 3162.68 7013.18C3172.26 7009.99 3178.24 7008.39 3180.64 7008.39C3184.83 7008.39 3186.92 7010.98 3186.92 7016.18L3180.64 7068.64C3180.24 7071.63 3179.44 7073.83 3178.24 7075.23C3177.24 7076.63 3172.35 7078.33 3163.58 7080.33C3155 7082.32 3140.23 7083.32 3119.28 7083.32C3088.55 7083.32 3065.8 7076.23 3051.04 7062.04C3036.27 7047.65 3028.89 7026.27 3028.89 6997.9C3028.89 6969.52 3036.77 6897.38 3052.54 6781.48L3023.2 6782.68C3018.22 6782.48 3015.72 6779.98 3015.72 6775.19L3023.8 6726.93C3024.4 6722.33 3027 6719.93 3031.59 6719.73L3060.02 6718.83Z" fill="black"/>
<path d="M3255.46 7023.97C3250.87 7011.98 3247.68 7000.19 3245.88 6988.6C3244.29 6976.81 3243.49 6960.73 3243.49 6940.34C3243.49 6919.96 3245.68 6894.78 3250.07 6864.81C3264.64 6764.89 3309.93 6714.94 3385.95 6714.94C3415.28 6714.94 3437.73 6725.03 3453.3 6745.21C3468.86 6765.39 3476.64 6791.57 3476.64 6823.74C3476.64 6855.92 3474.65 6887.19 3470.65 6917.56C3470.06 6922.96 3466.96 6925.76 3461.38 6925.96L3313.52 6931.05C3313.32 6934.05 3313.22 6938.05 3313.22 6943.04C3313.22 6965.62 3317.12 6983.51 3324.9 6996.7C3332.88 7009.89 3344.85 7016.48 3360.81 7016.48C3376.78 7016.48 3391.54 7014.18 3405.11 7009.59C3418.88 7004.79 3426.96 7002.39 3429.35 7002.39C3431.75 7002.39 3433.84 7003.19 3435.64 7004.79C3437.43 7006.39 3438.33 7008.59 3438.33 7011.38L3432.34 7064.14C3432.14 7067.14 3431.55 7069.13 3430.55 7070.13C3429.75 7070.93 3428.05 7071.83 3425.46 7072.83C3401.32 7079.83 3378.07 7083.32 3355.72 7083.32C3333.38 7083.32 3316.02 7080.62 3303.65 7075.23C3291.28 7069.83 3281.3 7062.94 3273.72 7054.55C3266.33 7045.95 3260.25 7035.76 3255.46 7023.97ZM3320.71 6855.82L3318.01 6875L3396.13 6871.1C3399.52 6870.9 3401.72 6870.3 3402.71 6869.31C3405.71 6866.31 3407.2 6858.11 3407.2 6844.73C3407.2 6831.14 3406.7 6821.65 3405.71 6816.25C3404.91 6810.66 3403.41 6804.96 3401.22 6799.17C3396.63 6786.38 3388.75 6779.98 3377.57 6779.98C3366.6 6779.98 3357.92 6781.88 3351.53 6785.68C3337.37 6794.47 3327.09 6817.85 3320.71 6855.82Z" fill="black"/>
<path d="M3748.7 6724.23C3753.09 6725.83 3755.29 6729.62 3755.29 6735.62L3748.4 6789.87C3748 6793.87 3745.21 6795.87 3740.02 6795.87C3735.03 6795.87 3730.25 6794.87 3725.66 6792.87C3706.3 6784.28 3690.24 6779.98 3677.47 6779.98C3664.7 6779.98 3654.52 6785.28 3646.94 6795.87C3639.36 6806.46 3633.27 6821.65 3628.68 6841.43C3620.1 6878.4 3615.81 6912.17 3615.81 6942.74C3615.81 6991.9 3628.48 7016.48 3653.82 7016.48C3672.18 7016.48 3687.05 7014.18 3698.42 7009.59C3709.79 7004.79 3717.18 7002.39 3720.57 7002.39C3727.55 7002.39 3731.04 7005.39 3731.04 7011.38L3724.76 7064.14C3724.36 7067.74 3723.56 7069.93 3722.36 7070.73C3721.37 7071.33 3719.97 7072.03 3718.17 7072.83C3694.03 7079.83 3671.28 7083.32 3649.93 7083.32C3628.78 7083.32 3612.02 7080.62 3599.65 7075.23C3587.48 7069.83 3577.8 7062.94 3570.62 7054.55C3563.44 7045.95 3557.65 7035.66 3553.26 7023.67C3545.48 7003.09 3541.59 6977.81 3541.59 6947.84C3541.59 6917.66 3543.48 6891.49 3547.27 6869.31C3551.27 6846.92 3555.36 6828.74 3559.55 6814.75C3563.94 6800.76 3569.72 6787.38 3576.91 6774.59C3584.09 6761.6 3592.47 6750.91 3602.05 6742.51C3623 6724.13 3650.73 6714.94 3685.25 6714.94C3708.4 6714.94 3729.55 6718.03 3748.7 6724.23Z" fill="black"/>
<path d="M3846.57 6718.83C3851.16 6674.87 3854.15 6652.19 3855.55 6650.79C3856.95 6649.19 3859.04 6648.29 3861.84 6648.09L3919 6646C3924.39 6646.4 3927.08 6648.89 3927.08 6653.49C3923.29 6675.67 3920.1 6696.95 3917.51 6717.33L3987.24 6714.94C3992.03 6715.14 3994.43 6717.73 3994.43 6722.73L3986.05 6770.39C3985.25 6775.19 3982.75 6777.68 3978.56 6777.88L3910.02 6780.58C3896.46 6902.88 3889.67 6970.32 3889.67 6982.91C3889.67 7006.29 3899.65 7017.98 3919.6 7017.98C3929.78 7017.98 3939.65 7016.38 3949.23 7013.18C3958.81 7009.99 3964.79 7008.39 3967.19 7008.39C3971.38 7008.39 3973.47 7010.98 3973.47 7016.18L3967.19 7068.64C3966.79 7071.63 3965.99 7073.83 3964.8 7075.23C3963.8 7076.63 3958.91 7078.33 3950.13 7080.33C3941.55 7082.32 3926.78 7083.32 3905.83 7083.32C3875.11 7083.32 3852.36 7076.23 3837.59 7062.04C3822.83 7047.65 3815.45 7026.27 3815.45 6997.9C3815.45 6969.52 3823.33 6897.38 3839.09 6781.48L3809.76 6782.68C3804.77 6782.48 3802.28 6779.98 3802.28 6775.19L3810.36 6726.93C3810.96 6722.33 3813.55 6719.93 3818.14 6719.73L3846.57 6718.83Z" fill="black"/>
<path d="M4102.77 6684.96C4090.4 6684.96 4080.52 6681.07 4073.14 6673.27C4065.76 6665.48 4062.07 6655.49 4062.07 6643.3C4062.07 6630.91 4066.96 6619.92 4076.73 6610.33C4086.71 6600.54 4097.88 6595.64 4110.25 6595.64C4122.62 6595.64 4132.6 6599.54 4140.18 6607.33C4147.97 6615.12 4151.86 6625.21 4151.86 6637.6C4151.86 6649.79 4146.77 6660.78 4136.59 6670.58C4126.42 6680.17 4115.14 6684.96 4102.77 6684.96ZM4135.99 6725.43L4097.08 7071.03C4096.69 7073.83 4095.99 7075.83 4094.99 7077.03C4093.99 7078.23 4092.1 7078.93 4089.3 7079.13L4029.14 7081.22C4024.75 7080.82 4022.56 7078.93 4022.56 7075.53L4062.07 6726.93C4062.86 6722.53 4065.36 6720.13 4069.55 6719.73L4127.91 6717.64C4133.3 6718.03 4135.99 6720.63 4135.99 6725.43Z" fill="black"/>
<path d="M4295.82 7083.32C4260.5 7083.32 4234.56 7072.73 4218 7051.55C4201.64 7030.17 4193.46 6999.09 4193.46 6958.33C4193.46 6939.35 4195.55 6914.57 4199.74 6883.99C4203.93 6853.42 4207.82 6831.24 4211.42 6817.45C4215.01 6803.46 4220.1 6789.87 4226.68 6776.68C4233.26 6763.3 4241.05 6752.3 4250.03 6743.71C4269.78 6724.53 4296.52 6714.94 4330.24 6714.94C4378.13 6714.94 4409.15 6732.52 4423.32 6767.69C4430.9 6786.48 4434.69 6809.26 4434.69 6836.03C4434.69 6862.61 4432.6 6890.19 4428.41 6918.76C4424.42 6947.34 4420.63 6968.52 4417.03 6982.31C4413.44 6995.9 4408.35 7009.29 4401.77 7022.47C4395.38 7035.46 4387.7 7046.25 4378.72 7054.85C4358.97 7073.83 4331.33 7083.32 4295.82 7083.32ZM4348.79 6952.03C4350.99 6941.44 4353.78 6921.66 4357.17 6892.69C4360.77 6863.51 4362.56 6841.93 4362.56 6827.94C4362.56 6793.97 4350.29 6776.98 4325.75 6776.98C4314.18 6776.98 4304.6 6782.48 4297.02 6793.47C4289.63 6804.46 4283.65 6822.74 4279.06 6848.32C4269.88 6900.28 4265.29 6942.44 4265.29 6974.81C4265.29 7007.19 4277.46 7023.37 4301.8 7023.37C4313.38 7023.37 4322.95 7017.88 4330.54 7006.89C4338.32 6995.7 4344.4 6977.41 4348.79 6952.03Z" fill="black"/>
<path d="M4606.19 6725.43L4602.9 6753C4631.63 6727.63 4659.17 6714.94 4685.5 6714.94C4719.03 6714.94 4740.18 6733.32 4748.95 6770.09C4751.35 6780.08 4752.55 6789.57 4752.55 6798.57C4752.55 6807.36 4752.25 6814.45 4751.65 6819.85L4722.92 7071.03C4722.12 7076.03 4719.62 7078.73 4715.43 7079.13L4654.98 7081.22C4650.59 7080.82 4648.39 7078.93 4648.39 7075.53L4675.63 6838.13C4676.23 6832.94 4676.52 6828.24 4676.52 6824.04C4676.52 6807.66 4672.63 6796.57 4664.85 6790.77C4657.27 6784.78 4647.59 6781.78 4635.82 6781.78C4624.05 6781.78 4611.78 6784.28 4599.01 6789.27L4566.98 7071.03C4566.18 7076.03 4563.69 7078.73 4559.5 7079.13L4499.04 7081.22C4494.65 7080.82 4492.46 7078.93 4492.46 7075.53L4531.96 6726.93C4532.76 6722.53 4535.26 6720.13 4539.45 6719.73L4598.11 6717.64C4603.5 6717.83 4606.19 6720.43 4606.19 6725.43Z" fill="black"/>
<path d="M5053.04 6708.64L5052.14 6717.64L5118.59 6715.24C5123.38 6715.44 5125.77 6718.03 5125.77 6723.03L5117.39 6770.69C5116.59 6775.49 5114.1 6777.98 5109.91 6778.18L5045.86 6780.58L5016.53 7071.03C5016.13 7073.83 5015.43 7075.83 5014.43 7077.03C5013.43 7078.23 5011.54 7078.93 5008.74 7079.13L4948.29 7081.22C4943.9 7080.82 4941.7 7078.93 4941.7 7075.53L4974.33 6781.18L4947.09 6782.68C4942.1 6782.48 4939.61 6779.98 4939.61 6775.19L4947.69 6726.93C4948.09 6722.53 4950.68 6720.13 4955.47 6719.73L4981.21 6718.83L4985.4 6682.27C4990.59 6637.1 5003.86 6605.93 5025.21 6588.75C5043.36 6574.16 5068.7 6566.86 5101.23 6566.86C5122.58 6566.86 5141.23 6569.26 5157.2 6574.06C5163.18 6576.06 5166.18 6579.15 5166.18 6583.35L5158.39 6635.8C5157.6 6640.6 5156 6643 5153.6 6643C5151.21 6643 5145.12 6641.6 5135.35 6638.8C5125.57 6635.8 5113.5 6634.31 5099.13 6634.31C5084.97 6634.31 5074.39 6640.1 5067.41 6651.69C5060.62 6663.28 5055.83 6682.27 5053.04 6708.64Z" fill="black"/>
<path d="M5255.37 7083.32C5220.05 7083.32 5194.11 7072.73 5177.55 7051.55C5161.19 7030.17 5153.01 6999.09 5153.01 6958.33C5153.01 6939.35 5155.1 6914.57 5159.29 6883.99C5163.48 6853.42 5167.37 6831.24 5170.96 6817.45C5174.56 6803.46 5179.64 6789.87 5186.23 6776.68C5192.81 6763.3 5200.59 6752.3 5209.57 6743.71C5229.33 6724.53 5256.06 6714.94 5289.79 6714.94C5337.67 6714.94 5368.7 6732.52 5382.87 6767.69C5390.45 6786.48 5394.24 6809.26 5394.24 6836.03C5394.24 6862.61 5392.15 6890.19 5387.96 6918.76C5383.96 6947.34 5380.17 6968.52 5376.58 6982.31C5372.99 6995.9 5367.9 7009.29 5361.32 7022.47C5354.93 7035.46 5347.25 7046.25 5338.27 7054.85C5318.52 7073.83 5290.88 7083.32 5255.37 7083.32ZM5308.34 6952.03C5310.54 6941.44 5313.33 6921.66 5316.72 6892.69C5320.31 6863.51 5322.11 6841.93 5322.11 6827.94C5322.11 6793.97 5309.84 6776.98 5285.3 6776.98C5273.72 6776.98 5264.15 6782.48 5256.56 6793.47C5249.18 6804.46 5243.19 6822.74 5238.61 6848.32C5229.43 6900.28 5224.84 6942.44 5224.84 6974.81C5224.84 7007.19 5237.01 7023.37 5261.35 7023.37C5272.93 7023.37 5282.5 7017.88 5290.08 7006.89C5297.87 6995.7 5303.95 6977.41 5308.34 6952.03Z" fill="black"/>
<path d="M5653.43 6794.07L5621.41 6790.77C5595.47 6790.77 5573.72 6795.97 5556.16 6806.36L5526.53 7070.73C5525.73 7075.73 5523.24 7078.43 5519.05 7078.83L5458.59 7081.22C5454.2 7080.82 5452 7078.93 5452 7075.53L5491.51 6726.93C5492.31 6722.53 5494.8 6720.13 5498.99 6719.73L5557.36 6717.64C5562.74 6717.83 5565.44 6720.43 5565.44 6725.43L5561.85 6756.3C5574.62 6743.31 5586.99 6733.22 5598.96 6726.03C5610.93 6718.63 5622.9 6714.94 5634.88 6714.94C5647.05 6714.94 5656.32 6715.44 5662.71 6716.44C5666.9 6717.24 5669 6720.03 5669 6724.83C5669 6738.62 5666.7 6759.1 5662.11 6786.28C5661.11 6791.47 5658.22 6794.07 5653.43 6794.07Z" fill="black"/>
<path d="M5834.81 7023.97C5830.22 7011.98 5827.02 7000.19 5825.23 6988.6C5823.63 6976.81 5822.83 6960.73 5822.83 6940.34C5822.83 6919.96 5825.03 6894.78 5829.42 6864.81C5843.98 6764.89 5889.28 6714.94 5965.3 6714.94C5994.63 6714.94 6017.08 6725.03 6032.64 6745.21C6048.21 6765.39 6055.99 6791.57 6055.99 6823.74C6055.99 6855.92 6053.99 6887.19 6050 6917.56C6049.4 6922.96 6046.31 6925.76 6040.72 6925.96L5892.87 6931.05C5892.67 6934.05 5892.57 6938.05 5892.57 6943.04C5892.57 6965.62 5896.46 6983.51 5904.24 6996.7C5912.22 7009.89 5924.2 7016.48 5940.16 7016.48C5956.12 7016.48 5970.89 7014.18 5984.46 7009.59C5998.22 7004.79 6006.3 7002.39 6008.7 7002.39C6011.09 7002.39 6013.19 7003.19 6014.98 7004.79C6016.78 7006.39 6017.68 7008.59 6017.68 7011.38L6011.69 7064.14C6011.49 7067.14 6010.89 7069.13 6009.9 7070.13C6009.1 7070.93 6007.4 7071.83 6004.81 7072.83C5980.66 7079.83 5957.42 7083.32 5935.07 7083.32C5912.72 7083.32 5895.36 7080.62 5882.99 7075.23C5870.62 7069.83 5860.65 7062.94 5853.06 7054.55C5845.68 7045.95 5839.6 7035.76 5834.81 7023.97ZM5900.05 6855.82L5897.36 6875L5975.48 6871.1C5978.87 6870.9 5981.06 6870.3 5982.06 6869.31C5985.05 6866.31 5986.55 6858.11 5986.55 6844.73C5986.55 6831.14 5986.05 6821.65 5985.05 6816.25C5984.26 6810.66 5982.76 6804.96 5980.56 6799.17C5975.97 6786.38 5968.09 6779.98 5956.92 6779.98C5945.95 6779.98 5937.27 6781.88 5930.88 6785.68C5916.71 6794.47 5906.44 6817.85 5900.05 6855.82Z" fill="black"/>
<path d="M6221.2 6982.01L6289.74 6726.93C6290.94 6722.33 6293.63 6719.93 6297.82 6719.73L6360.67 6717.64C6365.66 6718.03 6368.15 6720.63 6368.15 6725.43L6246.34 7071.03C6244.54 7076.03 6241.95 7078.73 6238.56 7079.13L6177.2 7081.22C6173.41 7081.02 6171.22 7079.13 6170.62 7075.53L6123.93 6726.93C6124.53 6722.33 6127.02 6719.93 6131.41 6719.73L6190.37 6717.64C6194.96 6717.83 6197.46 6720.43 6197.85 6725.43L6221.2 6982.01Z" fill="black"/>
<path d="M6410.65 7023.97C6406.07 7011.98 6402.87 7000.19 6401.08 6988.6C6399.48 6976.81 6398.68 6960.73 6398.68 6940.34C6398.68 6919.96 6400.88 6894.78 6405.27 6864.81C6419.83 6764.89 6465.13 6714.94 6541.15 6714.94C6570.48 6714.94 6592.93 6725.03 6608.49 6745.21C6624.05 6765.39 6631.84 6791.57 6631.84 6823.74C6631.84 6855.92 6629.84 6887.19 6625.85 6917.56C6625.25 6922.96 6622.16 6925.76 6616.57 6925.96L6468.72 6931.05C6468.52 6934.05 6468.42 6938.05 6468.42 6943.04C6468.42 6965.62 6472.31 6983.51 6480.09 6996.7C6488.07 7009.89 6500.04 7016.48 6516.01 7016.48C6531.97 7016.48 6546.74 7014.18 6560.3 7009.59C6574.07 7004.79 6582.15 7002.39 6584.55 7002.39C6586.94 7002.39 6589.04 7003.19 6590.83 7004.79C6592.63 7006.39 6593.53 7008.59 6593.53 7011.38L6587.54 7064.14C6587.34 7067.14 6586.74 7069.13 6585.74 7070.13C6584.95 7070.93 6583.25 7071.83 6580.66 7072.83C6556.51 7079.83 6533.27 7083.32 6510.92 7083.32C6488.57 7083.32 6471.21 7080.62 6458.84 7075.23C6446.47 7069.83 6436.49 7062.94 6428.91 7054.55C6421.53 7045.95 6415.44 7035.76 6410.65 7023.97ZM6475.9 6855.82L6473.21 6875L6551.32 6871.1C6554.72 6870.9 6556.91 6870.3 6557.91 6869.31C6560.9 6866.31 6562.4 6858.11 6562.4 6844.73C6562.4 6831.14 6561.9 6821.65 6560.9 6816.25C6560.1 6810.66 6558.61 6804.96 6556.41 6799.17C6551.82 6786.38 6543.94 6779.98 6532.77 6779.98C6521.79 6779.98 6513.11 6781.88 6506.73 6785.68C6492.56 6794.47 6482.29 6817.85 6475.9 6855.82Z" fill="black"/>
<path d="M6890.73 6794.07L6858.7 6790.77C6832.76 6790.77 6811.01 6795.97 6793.46 6806.36L6763.83 7070.73C6763.03 7075.73 6760.53 7078.43 6756.34 7078.83L6695.89 7081.22C6691.5 7080.82 6689.3 7078.93 6689.3 7075.53L6728.81 6726.93C6729.61 6722.53 6732.1 6720.13 6736.29 6719.73L6794.65 6717.64C6800.04 6717.83 6802.73 6720.43 6802.73 6725.43L6799.14 6756.3C6811.91 6743.31 6824.28 6733.22 6836.26 6726.03C6848.23 6718.63 6860.2 6714.94 6872.17 6714.94C6884.34 6714.94 6893.62 6715.44 6900.01 6716.44C6904.2 6717.24 6906.29 6720.03 6906.29 6724.83C6906.29 6738.62 6904 6759.1 6899.41 6786.28C6898.41 6791.47 6895.52 6794.07 6890.73 6794.07Z" fill="black"/>
<path d="M7185.54 6725.43L7012.84 7216.11C7011.24 7221.1 7008.35 7223.7 7004.16 7223.9L6944 7226C6939.61 7225.8 6937.42 7223.8 6937.42 7220.01L6988.9 7074.63L6942.21 6726.93C6942.21 6722.33 6944.7 6719.93 6949.69 6719.73L7008.65 6717.64C7013.24 6717.83 7015.73 6720.43 7016.13 6725.43L7038.88 6977.51L7111.61 6726.93C7112.81 6722.33 7115.4 6719.93 7119.39 6719.73L7178.05 6717.64C7183.04 6718.03 7185.54 6720.63 7185.54 6725.43Z" fill="black"/>
<path d="M7568.94 6988L7630.89 6726.93C7632.09 6722.33 7634.68 6719.93 7638.67 6719.73L7693.74 6717.64C7698.93 6718.03 7701.53 6720.63 7701.53 6725.43L7594.08 7071.03C7592.68 7076.03 7590.09 7078.73 7586.3 7079.13L7526.14 7081.22C7522.74 7081.02 7520.55 7079.13 7519.55 7075.53L7507.58 6867.51L7452.21 7071.03C7451.01 7076.23 7448.52 7078.93 7444.73 7079.13L7384.57 7081.22C7381.18 7081.02 7378.98 7079.13 7377.98 7075.53L7347.46 6726.93C7348.05 6722.33 7350.55 6719.93 7354.94 6719.73L7410.61 6717.64C7415.2 6717.83 7417.69 6720.43 7418.09 6725.43L7427.97 6985.91L7488.72 6726.93C7489.52 6722.73 7492.22 6720.33 7496.81 6719.73L7545.89 6717.94C7550.88 6718.13 7553.57 6720.73 7553.97 6725.73L7568.94 6988Z" fill="black"/>
<path d="M7834.11 7083.32C7798.8 7083.32 7772.86 7072.73 7756.3 7051.55C7739.94 7030.17 7731.75 6999.09 7731.75 6958.33C7731.75 6939.35 7733.85 6914.57 7738.04 6883.99C7742.23 6853.42 7746.12 6831.24 7749.71 6817.45C7753.3 6803.46 7758.39 6789.87 7764.98 6776.68C7771.56 6763.3 7779.34 6752.3 7788.32 6743.71C7808.07 6724.53 7834.81 6714.94 7868.53 6714.94C7916.42 6714.94 7947.45 6732.52 7961.61 6767.69C7969.2 6786.48 7972.99 6809.26 7972.99 6836.03C7972.99 6862.61 7970.89 6890.19 7966.7 6918.76C7962.71 6947.34 7958.92 6968.52 7955.33 6982.31C7951.74 6995.9 7946.65 7009.29 7940.06 7022.47C7933.68 7035.46 7926 7046.25 7917.02 7054.85C7897.27 7073.83 7869.63 7083.32 7834.11 7083.32ZM7887.09 6952.03C7889.28 6941.44 7892.08 6921.66 7895.47 6892.69C7899.06 6863.51 7900.86 6841.93 7900.86 6827.94C7900.86 6793.97 7888.59 6776.98 7864.04 6776.98C7852.47 6776.98 7842.89 6782.48 7835.31 6793.47C7827.93 6804.46 7821.94 6822.74 7817.35 6848.32C7808.17 6900.28 7803.59 6942.44 7803.59 6974.81C7803.59 7007.19 7815.76 7023.37 7840.1 7023.37C7851.67 7023.37 7861.25 7017.88 7868.83 7006.89C7876.61 6995.7 7882.7 6977.41 7887.09 6952.03Z" fill="black"/>
<path d="M8232.18 6794.07L8200.16 6790.77C8174.22 6790.77 8152.47 6795.97 8134.91 6806.36L8105.28 7070.73C8104.48 7075.73 8101.99 7078.43 8097.8 7078.83L8037.34 7081.22C8032.95 7080.82 8030.75 7078.93 8030.75 7075.53L8070.26 6726.93C8071.06 6722.53 8073.55 6720.13 8077.74 6719.73L8136.11 6717.64C8141.49 6717.83 8144.19 6720.43 8144.19 6725.43L8140.59 6756.3C8153.36 6743.31 8165.74 6733.22 8177.71 6726.03C8189.68 6718.63 8201.65 6714.94 8213.62 6714.94C8225.79 6714.94 8235.07 6715.44 8241.46 6716.44C8245.65 6717.24 8247.74 6720.03 8247.74 6724.83C8247.74 6738.62 8245.45 6759.1 8240.86 6786.28C8239.86 6791.47 8236.97 6794.07 8232.18 6794.07Z" fill="black"/>
<path d="M8501.55 7073.73C8501.55 7077.33 8498.85 7079.13 8493.47 7079.13L8429.72 7081.22C8426.72 7081.02 8424.53 7079.13 8423.13 7075.53L8362.07 6903.18L8343.22 7071.03C8342.82 7073.83 8342.12 7075.83 8341.12 7077.03C8340.13 7078.23 8338.23 7078.93 8335.44 7079.13L8275.28 7081.22C8270.89 7080.82 8268.69 7078.93 8268.69 7075.53L8324.06 6583.05C8324.46 6580.25 8325.16 6578.25 8326.16 6577.06C8327.16 6575.86 8329.05 6575.16 8331.85 6574.96L8390.51 6572.86C8395.7 6573.46 8398.29 6576.16 8398.29 6580.95L8364.17 6884.29L8443.78 6727.23C8446.18 6722.43 8449.47 6719.93 8453.66 6719.73L8515.61 6717.64C8520.6 6718.23 8523.1 6720.53 8523.1 6724.53C8523.1 6726.73 8522.7 6728.73 8521.9 6730.52L8432.41 6886.09L8500.65 7070.13C8501.25 7071.53 8501.55 7072.73 8501.55 7073.73Z" fill="black"/>
<path d="M8546.14 7218.51L8601.81 6727.23C8602.41 6722.43 8604.9 6719.93 8609.29 6719.73L8669.45 6717.64C8673.84 6718.03 8676.04 6720.13 8676.04 6723.93L8670.05 6763.8C8679.23 6748.01 8689.21 6735.92 8699.98 6727.53C8710.96 6719.13 8723.23 6714.94 8736.8 6714.94C8750.56 6714.94 8762.24 6717.34 8771.81 6722.13C8781.39 6726.73 8789.17 6732.92 8795.16 6740.72C8801.34 6748.31 8806.33 6757.5 8810.12 6768.29C8817.11 6787.48 8820.6 6813.75 8820.6 6847.12C8820.6 6880.3 8818.3 6908.47 8813.71 6931.65C8809.33 6954.83 8805.43 6972.52 8802.04 6984.71C8798.65 6996.7 8794.06 7009.09 8788.28 7021.87C8782.69 7034.66 8776.3 7045.36 8769.12 7053.95C8752.76 7073.53 8733.5 7083.32 8711.36 7083.32C8689.21 7083.32 8673.24 7078.63 8663.47 7069.23C8653.69 7059.84 8645.31 7045.65 8638.33 7026.67L8620.67 7216.41C8620.47 7221.2 8617.87 7223.7 8612.89 7223.9L8554.22 7226C8548.84 7225.8 8546.14 7223.3 8546.14 7218.51ZM8745.48 6855.52C8745.48 6807.96 8732.71 6784.18 8707.17 6784.18C8695.59 6784.18 8686.31 6789.27 8679.33 6799.46C8672.55 6809.66 8666.56 6830.54 8661.37 6862.11C8656.38 6893.68 8653.89 6916.37 8653.89 6930.15C8653.89 6943.74 8653.99 6952.43 8654.19 6956.23C8654.39 6959.83 8654.79 6964.82 8655.39 6971.22C8655.99 6977.61 8657.08 6982.91 8658.68 6987.1C8660.27 6991.3 8662.37 6995.5 8664.96 6999.69C8670.15 7008.49 8678.53 7012.88 8690.11 7012.88C8701.68 7012.88 8710.76 7007.79 8717.34 6997.6C8724.13 6987.4 8729.41 6973.52 8733.2 6955.93C8741.39 6918.36 8745.48 6884.89 8745.48 6855.52Z" fill="black"/>
<path d="M9007.96 6580.95L8952.89 7070.73C8952.49 7073.53 8951.79 7075.53 8950.79 7076.73C8949.8 7077.93 8947.9 7078.63 8945.11 7078.83L8884.95 7081.22C8880.56 7080.82 8878.36 7078.93 8878.36 7075.53L8933.73 6583.05C8934.13 6580.25 8934.83 6578.25 8935.83 6577.06C8936.83 6575.86 8938.72 6575.16 8941.51 6574.96L9000.18 6572.86C9005.37 6573.46 9007.96 6576.16 9007.96 6580.95Z" fill="black"/>
<path d="M9307.26 6725.43L9268.35 7071.03C9267.75 7076.23 9265.16 7078.93 9260.57 7079.13L9200.11 7081.22C9195.92 7080.82 9193.82 7078.93 9193.82 7075.53L9199.51 7034.76C9190.33 7050.35 9180.25 7062.34 9169.28 7070.73C9158.51 7079.13 9146.33 7083.32 9132.77 7083.32C9119.2 7083.32 9107.63 7081.02 9098.05 7076.43C9088.47 7071.63 9080.59 7065.44 9074.4 7057.84C9068.42 7050.05 9063.53 7040.76 9059.74 7029.97C9052.75 7010.78 9049.26 6984.61 9049.26 6951.44C9049.26 6918.06 9051.46 6889.79 9055.85 6866.61C9060.44 6843.43 9064.43 6825.84 9067.82 6813.85C9071.21 6801.66 9075.7 6789.17 9081.29 6776.38C9087.07 6763.6 9093.56 6752.91 9100.74 6744.31C9117.1 6724.73 9137.75 6714.94 9162.7 6714.94C9181.25 6714.94 9195.42 6719.43 9205.2 6728.43C9214.97 6737.22 9223.15 6750.31 9229.74 6767.69L9233.33 6726.93C9233.73 6722.53 9236.22 6720.13 9240.81 6719.73L9299.48 6717.64C9304.66 6718.03 9307.26 6720.63 9307.26 6725.43ZM9124.69 6942.74C9124.69 6990.5 9137.46 7014.38 9163 7014.38C9174.17 7014.38 9183.25 7009.29 9190.23 6999.09C9197.21 6988.7 9203.2 6968.02 9208.19 6937.05C9213.38 6906.07 9215.97 6883.49 9215.97 6869.31C9215.97 6855.12 9215.87 6846.13 9215.67 6842.33C9215.47 6838.53 9215.07 6833.54 9214.47 6827.34C9213.88 6820.95 9212.78 6815.65 9211.18 6811.45C9209.59 6807.06 9207.49 6802.66 9204.9 6798.27C9199.71 6789.67 9191.33 6785.38 9179.76 6785.38C9168.18 6785.38 9159 6790.57 9152.22 6800.96C9145.44 6811.15 9140.15 6824.84 9136.36 6842.03C9128.58 6878.8 9124.69 6912.37 9124.69 6942.74Z" fill="black"/>
<path d="M9571.84 6724.23C9576.23 6725.83 9578.42 6729.62 9578.42 6735.62L9571.54 6789.87C9571.14 6793.87 9568.34 6795.87 9563.16 6795.87C9558.17 6795.87 9553.38 6794.87 9548.79 6792.87C9529.44 6784.28 9513.37 6779.98 9500.6 6779.98C9487.83 6779.98 9477.66 6785.28 9470.07 6795.87C9462.49 6806.46 9456.41 6821.65 9451.82 6841.43C9443.24 6878.4 9438.95 6912.17 9438.95 6942.74C9438.95 6991.9 9451.62 7016.48 9476.96 7016.48C9495.32 7016.48 9510.18 7014.18 9521.55 7009.59C9532.93 7004.79 9540.31 7002.39 9543.7 7002.39C9550.69 7002.39 9554.18 7005.39 9554.18 7011.38L9547.89 7064.14C9547.49 7067.74 9546.7 7069.93 9545.5 7070.73C9544.5 7071.33 9543.1 7072.03 9541.31 7072.83C9517.16 7079.83 9494.42 7083.32 9473.07 7083.32C9451.92 7083.32 9435.16 7080.62 9422.79 7075.23C9410.61 7069.83 9400.94 7062.94 9393.75 7054.55C9386.57 7045.95 9380.78 7035.66 9376.39 7023.67C9368.61 7003.09 9364.72 6977.81 9364.72 6947.84C9364.72 6917.66 9366.62 6891.49 9370.41 6869.31C9374.4 6846.92 9378.49 6828.74 9382.68 6814.75C9387.07 6800.76 9392.86 6787.38 9400.04 6774.59C9407.22 6761.6 9415.6 6750.91 9425.18 6742.51C9446.13 6724.13 9473.87 6714.94 9508.38 6714.94C9531.53 6714.94 9552.68 6718.03 9571.84 6724.23Z" fill="black"/>
<path d="M9641.87 7023.97C9637.28 7011.98 9634.09 7000.19 9632.29 6988.6C9630.7 6976.81 9629.9 6960.73 9629.9 6940.34C9629.9 6919.96 9632.09 6894.78 9636.48 6864.81C9651.05 6764.89 9696.34 6714.94 9772.37 6714.94C9801.7 6714.94 9824.14 6725.03 9839.71 6745.21C9855.27 6765.39 9863.05 6791.57 9863.05 6823.74C9863.05 6855.92 9861.06 6887.19 9857.07 6917.56C9856.47 6922.96 9853.38 6925.76 9847.79 6925.96L9699.93 6931.05C9699.74 6934.05 9699.64 6938.05 9699.64 6943.04C9699.64 6965.62 9703.53 6983.51 9711.31 6996.7C9719.29 7009.89 9731.26 7016.48 9747.22 7016.48C9763.19 7016.48 9777.95 7014.18 9791.52 7009.59C9805.29 7004.79 9813.37 7002.39 9815.76 7002.39C9818.16 7002.39 9820.25 7003.19 9822.05 7004.79C9823.84 7006.39 9824.74 7008.59 9824.74 7011.38L9818.76 7064.14C9818.56 7067.14 9817.96 7069.13 9816.96 7070.13C9816.16 7070.93 9814.47 7071.83 9811.87 7072.83C9787.73 7079.83 9764.48 7083.32 9742.14 7083.32C9719.79 7083.32 9702.43 7080.62 9690.06 7075.23C9677.69 7069.83 9667.71 7062.94 9660.13 7054.55C9652.75 7045.95 9646.66 7035.76 9641.87 7023.97ZM9707.12 6855.82L9704.42 6875L9782.54 6871.1C9785.93 6870.9 9788.13 6870.3 9789.13 6869.31C9792.12 6866.31 9793.62 6858.11 9793.62 6844.73C9793.62 6831.14 9793.12 6821.65 9792.12 6816.25C9791.32 6810.66 9789.82 6804.96 9787.63 6799.17C9783.04 6786.38 9775.16 6779.98 9763.99 6779.98C9753.01 6779.98 9744.33 6781.88 9737.95 6785.68C9723.78 6794.47 9713.5 6817.85 9707.12 6855.82Z" fill="black"/>
<path d="M9961.52 7083.32C9948.55 7083.32 9938.08 7079.23 9930.1 7071.03C9922.31 7062.64 9918.42 7052.05 9918.42 7039.26C9918.42 7026.27 9923.61 7014.68 9933.99 7004.49C9944.56 6994.3 9956.33 6989.2 9969.3 6989.2C9982.47 6989.2 9993.05 6993.3 10001 7001.49C10009 7009.69 10013 7020.28 10013 7033.26C10013 7046.25 10007.7 7057.84 9997.14 7068.04C9986.56 7078.23 9974.69 7083.32 9961.52 7083.32Z" fill="black"/>
</g>
<defs>
<filter id="filter0_i_90_2" x="0" y="0" width="10013" height="7230" filterUnits="userSpaceOnUse" color-interpolation-filters="sRGB">
<feFlood flood-opacity="0" result="BackgroundImageFix"/>
<feBlend mode="normal" in="SourceGraphic" in2="BackgroundImageFix" result="shape"/>
<feColorMatrix in="SourceAlpha" type="matrix" values="0 0 0 0 0 0 0 0 0 0 0 0 0 0 0 0 0 0 127 0" result="hardAlpha"/>
<feOffset dy="4"/>
<feGaussianBlur stdDeviation="2"/>
<feComposite in2="hardAlpha" operator="arithmetic" k2="-1" k3="1"/>
<feColorMatrix type="matrix" values="0 0 0 0 0 0 0 0 0 0 0 0 0 0 0 0 0 0 0.25 0"/>
<feBlend mode="normal" in2="shape" result="effect1_innerShadow_90_2"/>
</filter>
</defs>
</svg>
